<svg width="116" height="103" viewBox="0 0 116 103" fill="none" xmlns="http://www.w3.org/2000/svg">
<path d="M60.4771 1.11139L66.6253 8.01981L74.9493 3.98992C76.7348 3.12541 78.8749 4.01186 79.5263 5.88583L82.5628 14.6213L91.7952 14.0838C93.7756 13.9685 95.4136 15.6063 95.2981 17.5867L94.7606 26.819L103.496 29.8556C105.37 30.507 106.256 32.6468 105.392 34.4326L101.362 42.7566L108.27 48.9048C109.752 50.2237 109.752 52.54 108.27 53.8587L101.362 60.007L105.392 68.3309C106.256 70.1165 105.37 72.2565 103.496 72.9077L94.7606 75.9442L95.2981 85.1766C95.4134 87.157 93.7756 88.795 91.7952 88.6795L82.5628 88.142L79.5263 96.8774C78.8749 98.7512 76.7351 99.6376 74.9493 98.7734L66.6253 94.7435L60.4771 101.652C59.1581 103.134 56.8419 103.134 55.5232 101.652L49.3749 94.7435L41.0509 98.7734C39.2654 99.6379 37.1254 98.7514 36.474 96.8774L33.4374 88.142L24.205 88.6795C22.2246 88.7948 20.5866 87.157 20.7022 85.1766L21.2397 75.9442L12.5042 72.9077C10.6305 72.2563 9.74402 70.1165 10.6083 68.3309L14.6382 60.007L7.72977 53.8587C6.24791 52.5398 6.24791 50.2235 7.72977 48.9048L14.6382 42.7566L10.6083 34.4326C9.74378 32.6471 10.6302 30.507 12.5042 29.8556L21.2397 26.819L20.7022 17.5867C20.5869 15.6063 22.2246 13.9683 24.205 14.0838L33.4374 14.6213L36.474 5.88583C37.1254 4.01209 39.2652 3.12564 41.0509 3.98992L49.3749 8.01981L55.5232 1.11139C56.8419 -0.370465 59.1581 -0.370465 60.4771 1.11139Z" fill="#FFCF5D"/>
<path d="M58.0001 84.6933C76.3986 84.6933 91.3135 69.7784 91.3135 51.3799C91.3135 32.9814 76.3986 18.0664 58.0001 18.0664C39.6015 18.0664 24.6866 32.9814 24.6866 51.3799C24.6866 69.7784 39.6015 84.6933 58.0001 84.6933Z" fill="#FFB545"/>
<path d="M43.9122 44.4971C43.9122 45.4641 43.1286 46.2474 42.1617 46.2474H37.4943C36.5278 46.2474 35.7441 45.4641 35.7441 44.4971C35.7441 43.5301 36.5276 42.7468 37.4943 42.7468H38.0778V37.9799C37.4621 38.196 36.7493 38.059 36.2566 37.5665C35.5732 36.8829 35.5732 35.7749 36.2566 35.0913L38.5906 32.7578C39.091 32.2569 39.8442 32.1078 40.4977 32.3783C41.1517 32.6492 41.5782 33.2876 41.5782 33.9953V42.7468H42.1614C43.1286 42.7468 43.9122 43.5301 43.9122 44.4971Z" fill="#3F5F94"/>
<path d="M56.4121 37.4959V40.9965C56.4121 43.8916 54.0569 46.2473 51.1611 46.2473C48.2658 46.2473 45.9105 43.8916 45.9105 40.9965V37.4959C45.9105 34.6006 48.2658 32.2451 51.1611 32.2451C54.0567 32.2449 56.4121 34.6001 56.4121 37.4959ZM52.9116 37.4959C52.9116 36.5306 52.1264 35.7457 51.1611 35.7457C50.1962 35.7457 49.4111 36.5306 49.4111 37.4959V40.9965C49.4111 41.9618 50.1962 42.7467 51.1611 42.7467C52.1264 42.7467 52.9116 41.9618 52.9116 40.9965V37.4959Z" fill="#3F5F94"/>
<path d="M68.9173 37.4959V40.9965C68.9173 43.8916 66.5621 46.2473 63.6663 46.2473C60.7709 46.2473 58.4157 43.8916 58.4157 40.9965V37.4959C58.4157 34.6006 60.7709 32.2451 63.6663 32.2451C66.5621 32.2449 68.9173 34.6001 68.9173 37.4959ZM65.4168 37.4959C65.4168 36.5306 64.6316 35.7457 63.6663 35.7457C62.7014 35.7457 61.9162 36.5306 61.9162 37.4959V40.9965C61.9162 41.9618 62.7014 42.7467 63.6663 42.7467C64.6316 42.7467 65.4168 41.9618 65.4168 40.9965V37.4959Z" fill="#3F5F94"/>
<path d="M80.0351 34.843L74.2015 45.3436C73.8815 45.9192 73.2847 46.2439 72.6697 46.2439C72.3824 46.2439 72.0908 46.1734 71.8213 46.024C70.9764 45.5544 70.672 44.4889 71.1411 43.644L76.975 33.1429C77.4443 32.2977 78.5096 31.9934 79.355 32.4627C80.2001 32.9323 80.5042 33.9978 80.0351 34.843ZM70.9208 33.9927C70.9208 33.0257 71.7041 32.2424 72.6711 32.2424C73.6376 32.2424 74.4216 33.0257 74.4216 33.9927C74.4216 34.9594 73.6376 35.7429 72.6711 35.7429C71.7043 35.7429 70.9208 34.9592 70.9208 33.9927ZM76.7551 44.4941C76.7551 43.5275 77.5386 42.744 78.5056 42.744C79.4721 42.744 80.2559 43.5275 80.2559 44.4941C80.2559 45.461 79.4721 46.2443 78.5056 46.2443C77.5386 46.2443 76.7551 45.4608 76.7551 44.4941Z" fill="#3F5F94"/>
<path d="M112.499 72.3879H3.50101C1.56752 72.3879 0 70.8204 0 68.8869V54.8828C0 52.9494 1.56752 51.3818 3.50101 51.3818H112.499C114.432 51.3818 116 52.9494 116 54.8828V68.8869C116 70.8204 114.432 72.3879 112.499 72.3879Z" fill="#3F5F94"/>
<path d="M16.1867 61.8837C16.1867 63.7541 15.4583 65.5119 14.1359 66.8343C12.8134 68.1568 11.0554 68.885 9.18567 68.885C5.32523 68.885 2.18436 65.7443 2.18436 61.8837C2.18436 58.0234 5.32523 54.8828 9.18567 54.8828H10.4701C11.437 54.8828 12.2206 55.6661 12.2206 56.6329C12.2206 57.6001 11.4373 58.3834 10.4701 58.3834H9.18567C7.25521 58.3834 5.68513 59.9539 5.68513 61.8837C5.68513 63.8141 7.25545 65.3844 9.18567 65.3844C10.1204 65.3844 10.9994 65.0201 11.6611 64.3591C11.8805 64.1392 12.0677 63.896 12.2189 63.6342H11.4041C10.4374 63.6342 9.65364 62.8509 9.65364 61.8837C9.65364 60.9169 10.4372 60.1336 11.4041 60.1336H14.4367C15.4037 60.1336 16.1867 60.9171 16.1867 61.8837Z" fill="white"/>
<path d="M29.4843 56.6329V62.969C29.4843 66.2314 26.8149 68.885 23.5335 68.885C20.2517 68.885 17.5825 66.2314 17.5825 62.969V56.6329C17.5825 55.6661 18.366 54.8828 19.3328 54.8828C20.2993 54.8828 21.0833 55.6661 21.0833 56.6329V62.969C21.0833 64.3008 22.1824 65.3844 23.5338 65.3844C24.8849 65.3844 25.9842 64.3008 25.9842 62.969V56.6329C25.9842 55.6661 26.7678 54.8828 27.7347 54.8828C28.7005 54.8828 29.4843 55.6663 29.4843 56.6329Z" fill="white"/>
<path d="M40.5748 68.7732C40.3722 68.8493 40.1647 68.885 39.9605 68.885C39.2519 68.885 38.585 68.4518 38.3218 67.749L38.0912 67.1345H33.9534L33.7231 67.749C33.3832 68.6541 32.375 69.1118 31.4694 68.7732C30.5647 68.434 30.1056 67.4253 30.4452 66.5199L34.3834 56.0181C34.6394 55.3351 35.2927 54.8828 36.0221 54.8828C36.7514 54.8828 37.4045 55.3351 37.6608 56.0181L41.5987 66.5199C41.9381 67.4251 41.4797 68.4338 40.5748 68.7732ZM36.7778 63.6339L36.0218 61.6173L35.2656 63.6339H36.7778Z" fill="white"/>
<path d="M53.5728 65.9023C54.2532 66.5885 54.2485 67.697 53.5623 68.3776C53.2209 68.7158 52.7753 68.885 52.33 68.885C51.8795 68.885 51.4291 68.7125 51.0871 68.3671L48.1292 65.3844H47.1959V67.1347C47.1959 68.1017 46.4119 68.885 45.4454 68.885C44.4789 68.885 43.6951 68.1017 43.6951 67.1347V56.6328C43.6951 55.6661 44.4786 54.8828 45.4454 54.8828H48.8589C51.7378 54.8828 54.0802 57.2385 54.0802 60.1336C54.0802 61.8416 53.2645 63.3613 52.0044 64.3208L53.5728 65.9023ZM50.5797 60.1334C50.5797 59.168 49.8076 58.3831 48.8591 58.3831H47.1961V61.8834H48.8591C49.8076 61.8834 50.5797 61.0985 50.5797 60.1334Z" fill="white"/>
<path d="M66.3032 68.7732C66.1006 68.8493 65.8931 68.885 65.6889 68.885C64.9803 68.885 64.3134 68.4518 64.0502 67.749L63.8196 67.1345H59.6818L59.4515 67.749C59.1116 68.6541 58.1034 69.1118 57.1978 68.7732C56.2931 68.434 55.834 67.4253 56.1736 66.5199L60.1118 56.0181C60.3678 55.3351 61.0211 54.8828 61.7505 54.8828C62.4798 54.8828 63.1329 55.3351 63.3892 56.0181L67.3271 66.5199C67.6665 67.4251 67.2081 68.4338 66.3032 68.7732ZM62.5062 63.6339L61.7502 61.6173L60.994 63.6339H62.5062Z" fill="white"/>
<path d="M80.6257 56.6329V67.1347C80.6257 67.8914 80.1393 68.5629 79.4198 68.7981C79.2403 68.8567 79.0571 68.8852 78.8752 68.8852C78.3282 68.8852 77.7997 68.6282 77.4636 68.1701L72.9242 61.9801V67.1352C72.9242 68.1021 72.1402 68.8854 71.1737 68.8854C70.2072 68.8854 69.4235 68.1021 69.4235 67.1352V56.6333C69.4235 55.8769 69.9096 55.2054 70.6292 54.9701C71.3485 54.7344 72.1374 54.9883 72.5851 55.5982L77.1247 61.7882V56.6329C77.1247 55.6661 77.9083 54.8828 78.8748 54.8828C79.8418 54.8828 80.6255 55.6663 80.6257 56.6329Z" fill="white"/>
<path d="M93.0586 56.6329C93.0586 57.6001 92.2751 58.3834 91.3083 58.3834H89.091V67.1347C89.091 68.1017 88.3075 68.885 87.3408 68.885C86.3743 68.885 85.5905 68.1017 85.5905 67.1347V58.3834H83.3734C82.4067 58.3834 81.6229 57.6001 81.6229 56.6329C81.6229 55.6661 82.4065 54.8828 83.3734 54.8828H91.3081C92.2749 54.8828 93.0586 55.6661 93.0586 56.6329Z" fill="white"/>
<path d="M102.955 67.1347C102.955 68.1017 102.171 68.885 101.204 68.885H95.8367C94.8702 68.885 94.0865 68.1017 94.0865 67.1347V56.6329C94.0865 55.6661 94.87 54.8828 95.8367 54.8828H101.204C102.171 54.8828 102.955 55.6661 102.955 56.6329C102.955 57.6001 102.171 58.3834 101.204 58.3834H97.587V60.1336H99.8041C100.771 60.1336 101.554 60.9169 101.554 61.8837C101.554 62.8509 100.771 63.6342 99.8041 63.6342H97.587V65.3844H101.204C102.171 65.3844 102.955 66.1677 102.955 67.1347Z" fill="white"/>
<path d="M113.816 67.1347C113.816 68.1017 113.032 68.885 112.065 68.885H106.698C105.731 68.885 104.948 68.1017 104.948 67.1347V56.6329C104.948 55.6661 105.731 54.8828 106.698 54.8828H112.065C113.032 54.8828 113.816 55.6661 113.816 56.6329C113.816 57.6001 113.032 58.3834 112.065 58.3834H108.448V60.1336H110.665C111.632 60.1336 112.415 60.9169 112.415 61.8837C112.415 62.8509 111.632 63.6342 110.665 63.6342H108.448V65.3844H112.065C113.032 65.3844 113.816 66.1677 113.816 67.1347Z" fill="white"/>
</svg>
