<svg xmlns="http://www.w3.org/2000/svg" width="186.183" height="50.69" viewBox="0 0 186.183 50.69">
  <g id="Group_7998" data-name="Group 7998" transform="translate(-340.773 -464.16)">
    <g id="Group_1" data-name="Group 1" transform="translate(340.773 465.64)">
      <path id="Path_1" data-name="Path 1" d="M506.68,511.674H488.693a11.281,11.281,0,0,1-11.269-11.269V473.329A8.5,8.5,0,0,1,491.9,467.3l12.544,12.433,13.411-12.283a9.209,9.209,0,0,1,15.43,6.791v18.146a10.012,10.012,0,0,1-17.059,7.11l-13.726-13.6a3.291,3.291,0,0,1-.256-.249l-.052-.057-14.334-14.21a2.754,2.754,0,0,0-4.692,1.956v27.076a5.534,5.534,0,0,0,5.527,5.529h10.874L488.5,495.255a2.871,2.871,0,0,1,3.986-4.134l16.193,15.616a2.87,2.87,0,0,1-1.994,4.937Zm1.849-27.9,11.741,11.639a4.271,4.271,0,0,0,7.276-3.033V474.237a3.468,3.468,0,0,0-5.811-2.557Z" transform="translate(-477.424 -464.812)" fill="#ff5a5f"/>
    </g>
    <g id="Group_2" data-name="Group 2" transform="translate(409.474 464.16)">
      <path id="Path_2" data-name="Path 2" d="M460.472,475.946v4.894c-5.28,0-6.781-.815-8.758-3.778-1.375,6.7-7.126,10.9-14.123,10.9a14.634,14.634,0,0,1-14.768-14.9v-4.808h4.808v4.25c0,6.654,3.866,10.82,10.09,10.82,5.581,0,9.788-3.691,9.788-8.072,0-2.661-1.588-4.549-4.336-4.549a4.653,4.653,0,0,0-.774.043v-4.379h1.888a9.179,9.179,0,0,1,8.5,5.107c1.761,3.219,3.435,4.465,5.881,4.465Zm-24.555,21.506h-4.721V492.69h4.721Zm8.113,0h-4.721V492.69h4.721Z" transform="translate(-422.823 -461.351)" fill="#fff"/>
      <path id="Path_3" data-name="Path 3" d="M450.823,475.879c0,5.2-2.4,7.771-7.17,7.771h-4.635v-4.894h3.648c1.588,0,2.575-.472,3.047-1.416a9.4,9.4,0,0,0,.345-3.092V464.16h4.765Zm-.043,17.173H446.1v-4.81h4.678Z" transform="translate(-402.274 -464.16)" fill="#fff"/>
      <path id="Path_4" data-name="Path 4" d="M456.433,464.16v15.669c0,7.728-3.392,10.947-10.775,10.947v-4.122c3.993,0,5.967-1.974,5.967-6.094v-16.4Z" transform="translate(-393.849 -464.16)" fill="#fff"/>
      <path id="Path_5" data-name="Path 5" d="M480.046,483.649H452.185v-4.894h15.539c0-5.624-2.189-8.885-6.525-9.831a19.937,19.937,0,0,0-4.336-.386V464.16c2.362,0,3.864.043,4.465.084a10.6,10.6,0,0,1,2.577.6c5.751,1.931,8.626,6.566,8.669,13.908h7.471Z" transform="translate(-385.568 -464.16)" fill="#fff"/>
      <path id="Path_6" data-name="Path 6" d="M488.647,475.68c0,5.711-3.9,9.917-9.615,9.917a9.116,9.116,0,0,1-7.771-3.821h-7.725v-4.894h5.922l-.041-.216a10.45,10.45,0,0,1-.086-1.159c0-5.751,3.993-9.872,9.7-9.872S488.647,470.058,488.647,475.68Zm-4.935,0c0-3.263-1.974-5.708-4.808-5.708-2.707,0-4.637,2.276-4.637,5.5s2.017,5.665,4.894,5.665C481.823,481.132,483.713,478.943,483.713,475.68Z" transform="translate(-371.165 -462.287)" fill="#fff"/>
    </g>
    <g id="Group_3" data-name="Group 3" transform="translate(439.191 496.72)">
      <path id="Path_7" data-name="Path 7" d="M448.413,492.342l-.018-9.817-4.871,8.181h-.885l-4.871-8.125v9.761h-1.847V478.867H437.5l5.62,9.47,5.543-9.47h1.579l.018,13.475Z" transform="translate(-435.921 -478.059)" fill="#fff"/>
      <path id="Path_8" data-name="Path 8" d="M443.487,485.465a5.3,5.3,0,1,1,5.314,5.214A5.076,5.076,0,0,1,443.487,485.465Zm8.74,0a3.439,3.439,0,1,0-3.426,3.6A3.349,3.349,0,0,0,452.227,485.465Z" transform="translate(-426.321 -476.283)" fill="#fff"/>
      <path id="Path_9" data-name="Path 9" d="M459.44,478.511v14.282h-1.77v-1.618a4.306,4.306,0,0,1-3.639,1.731,5.206,5.206,0,0,1,0-10.412,4.337,4.337,0,0,1,3.562,1.636v-5.62Zm-1.826,9.182a3.44,3.44,0,1,0-3.426,3.6A3.36,3.36,0,0,0,457.614,487.693Z" transform="translate(-419.486 -478.511)" fill="#fff"/>
      <path id="Path_10" data-name="Path 10" d="M463.6,484.405v6.16h-1.752v-1.348a3.786,3.786,0,0,1-3.349,1.461c-2.31,0-3.773-1.232-3.773-3,0-1.636,1.057-2.983,4.1-2.983h2.925v-.365c0-1.559-.9-2.464-2.732-2.464a5.16,5.16,0,0,0-3.235,1.1l-.769-1.384a6.8,6.8,0,0,1,4.215-1.309C462.021,480.267,463.6,481.612,463.6,484.405Zm-1.849,3.042v-1.425H458.9c-1.829,0-2.348.71-2.348,1.577,0,1.021.846,1.656,2.251,1.656A2.956,2.956,0,0,0,461.751,487.448Z" transform="translate(-412.06 -476.283)" fill="#fff"/>
      <path id="Path_11" data-name="Path 11" d="M465.631,480.267v1.79a3.039,3.039,0,0,0-.422-.02c-1.981,0-3.213,1.214-3.213,3.446v5.082h-1.849v-10.2h1.772v1.711A3.889,3.889,0,0,1,465.631,480.267Z" transform="translate(-405.182 -476.283)" fill="#fff"/>
      <path id="Path_12" data-name="Path 12" d="M474.133,487.693a4.966,4.966,0,0,1-5.159,5.214,4.3,4.3,0,0,1-3.637-1.731v1.618h-1.772V478.511h1.849v5.62a4.332,4.332,0,0,1,3.56-1.636A4.952,4.952,0,0,1,474.133,487.693Zm-1.87,0a3.439,3.439,0,1,0-3.444,3.6A3.363,3.363,0,0,0,472.264,487.693Z" transform="translate(-400.846 -478.511)" fill="#fff"/>
      <path id="Path_13" data-name="Path 13" d="M479.466,480.31l-4.948,11.219c-.9,2.155-2.078,2.829-3.637,2.829a3.828,3.828,0,0,1-2.616-.942l.787-1.386a2.615,2.615,0,0,0,1.829.751c.887,0,1.445-.4,1.944-1.579l.329-.712-4.5-10.18h1.922l3.564,8.159,3.519-8.159Z" transform="translate(-394.882 -476.228)" fill="#fff"/>
    </g>
  </g>
</svg>
