<svg width="451" height="455" viewBox="0 0 451 455" fill="none" xmlns="http://www.w3.org/2000/svg">
<path d="M228.922 248.824H222.22L222.22 161.237L362.816 80.2832L366.167 86.1135L228.922 165.123L228.922 248.824Z" fill="#F2F2F7"/>
<path d="M297.482 204.124L224.071 246.919L227.446 252.708L300.857 209.914L297.482 204.124Z" fill="#F2F2F7"/>
<path d="M226.943 245.604L223.602 251.413L372.483 337.058L375.825 331.249L226.943 245.604Z" fill="#F2F2F7"/>
<path d="M436.402 294.766L372.911 331.823L376.289 337.611L439.78 300.554L436.402 294.766Z" fill="#F2F2F7"/>
<path d="M302.301 451.412H295.6V293.057L223.895 251.709L227.246 245.879L302.301 289.17V371.464L436.263 294.464L439.547 300.228L302.301 379.237V451.412Z" fill="#F2F2F7"/>
<path d="M260.418 444.306C236.829 430.568 222.22 405.035 222.22 377.76L222.22 248.758H228.922L228.922 377.76C228.922 402.69 242.257 425.944 263.836 438.475L260.485 444.239L260.418 444.306Z" fill="#F2F2F7"/>
<path d="M299.223 454.76C285.82 454.76 272.35 451.275 260.421 444.306L263.772 438.542C285.484 451.208 312.491 451.275 334.271 438.743L409.193 395.653C430.906 383.121 444.443 359.8 444.443 334.737C444.443 309.674 430.906 285.884 409.126 273.352L372.737 252.443L376.088 246.613L412.477 267.522C436.334 281.193 451.144 306.792 451.144 334.335C451.144 361.878 436.334 387.745 412.544 401.483L337.622 444.574C325.76 451.409 312.491 454.827 299.223 454.827V454.76Z" fill="#F2F2F7"/>
<path d="M300.458 203.471L297.147 209.297L372.597 252.176L375.908 246.35L300.458 203.471Z" fill="#F2F2F7"/>
<path d="M228.922 248.828H222.22V334.473H228.922V248.828Z" fill="#F2F2F7"/>
<path d="M80.0831 408.588H73.3817L73.3817 249.898L11.3934 214.582L14.6775 208.818L152.057 287.292L223.829 246.011L227.18 251.842L152.123 295.133L80.0831 336.548L80.0831 408.789V408.588ZM80.0831 253.718V328.64L145.422 291.045L80.0831 253.718Z" fill="#F2F2F7"/>
<path d="M228.922 248.826H222.22L222.22 79.6819L160.232 43.2932L163.583 37.4629L299.019 117.009L362.816 80.285L366.167 86.0483L298.951 124.716L228.922 83.6357L228.922 248.826Z" fill="#F2F2F7"/>
<path d="M155.541 206.002H148.839L148.839 76.9997C148.839 49.7249 163.449 24.1924 187.038 10.4545C210.828 -3.41749 240.381 -3.4845 264.238 10.2534L260.887 16.0837C239.108 3.55197 212.101 3.61903 190.388 16.2847C168.877 28.8164 155.474 52.1374 155.474 76.9997L155.474 206.002H155.541Z" fill="#F2F2F7"/>
<path d="M190.388 16.2851L187.038 10.5219C210.828 -3.35008 240.381 -3.41714 264.238 10.3208L260.887 16.1511C239.108 3.61938 212.101 3.68639 190.388 16.3521V16.2851Z" fill="#F2F2F7"/>
<path d="M190.388 16.2851L187.038 10.5219C210.828 -3.35008 240.381 -3.41714 264.238 10.3208L260.887 16.1511C239.108 3.61938 212.101 3.68639 190.388 16.3521V16.2851Z" fill="#F2F2F7"/>
<path d="M190.388 16.2851L187.038 10.5219C210.828 -3.35008 240.381 -3.41714 264.238 10.3208L260.887 16.1511C239.108 3.61938 212.101 3.68639 190.388 16.3521V16.2851Z" fill="#F2F2F7"/>
<path d="M76.9994 411.938C63.5965 411.938 50.1264 408.453 38.1978 401.484C14.6088 387.746 0 362.28 0 334.939L0 248.289C0 221.014 14.6088 195.482 38.1978 181.744C61.9879 167.872 91.5414 167.805 115.398 181.543L225.57 244.938L335.474 181.744C357.454 169.078 371.125 145.489 371.125 120.158C371.125 94.8262 357.588 71.7063 335.875 59.2416L260.954 16.1514C239.174 3.61976 212.167 3.68677 190.455 16.3525L187.104 10.5892C210.894 -3.28273 240.447 -3.34973 264.304 10.3882L339.226 53.4784C363.016 67.1493 377.826 92.7489 377.826 120.225C377.826 147.701 362.882 173.769 338.824 187.641L225.637 252.779L112.115 187.44C90.3352 174.908 63.3283 174.975 41.6156 187.641C20.104 200.173 6.70143 223.494 6.70143 248.356L6.70143 335.006C6.70143 359.935 20.037 383.189 41.6156 395.721C63.3283 408.386 90.3352 408.453 112.115 395.922L223.962 331.588L227.312 337.418L115.466 401.752C103.604 408.587 90.3353 412.005 77.0665 412.005L76.9994 411.938Z" fill="#F2F2F7"/>
</svg>
